<?xml version="1.0" standalone="no"?>
<!DOCTYPE svg PUBLIC "-//W3C//DTD SVG 20010904//EN"
 "http://www.w3.org/TR/2001/REC-SVG-20010904/DTD/svg10.dtd">
<svg version="1.0" xmlns="http://www.w3.org/2000/svg"
 width="600.000000pt" height="600.000000pt" viewBox="0 0 600.000000 600.000000"
 preserveAspectRatio="xMidYMid meet">
<metadata>
Created by potrace 1.14, written by Peter Selinger 2001-2017
</metadata>
<g transform="translate(0.000000,600.000000) scale(0.100000,-0.100000)"
fill="#000000" stroke="none">
<path d="M989 5485 c0 -11 -1 -274 -2 -585 l-2 -565 -461 -5 c-422 -5 -464 -7
-481 -23 -24 -21 -22 -6 -26 -262 -3 -225 3 -258 46 -274 12 -5 225 -7 473 -6
l451 2 0 -338 0 -339 -77 2 -78 1 0 91 c0 127 1 122 -33 147 -26 18 -36 20
-62 12 -26 -8 -227 -140 -247 -163 -3 -3 -12 -9 -21 -15 -27 -17 -120 -82
-209 -145 -47 -33 -108 -75 -135 -94 -82 -54 -105 -79 -105 -115 0 -41 22 -64
145 -147 33 -22 83 -56 110 -75 28 -19 88 -62 135 -94 47 -32 99 -69 116 -82
17 -13 36 -23 42 -23 7 0 12 -3 12 -8 0 -4 35 -31 78 -59 85 -57 120 -62 155
-22 19 23 19 27 19 150 l0 85 76 -1 77 -1 2 -1014 c1 -558 2 -1017 2 -1020 1
-3 1128 -5 2505 -5 l2503 0 0 2505 0 2505 -860 0 c-757 0 -860 -2 -862 -15 -1
-8 -5 -45 -9 -82 -9 -96 -51 -220 -105 -312 -47 -80 -190 -236 -217 -236 -8 0
-14 -4 -14 -10 0 -5 -7 -10 -15 -10 -8 0 -15 -4 -15 -8 0 -15 -158 -82 -231
-98 -110 -24 -276 -23 -361 2 -9 3 -26 7 -38 9 -34 6 -207 92 -237 118 -152
126 -235 243 -282 393 -30 98 -35 124 -40 234 -1 13 -104 15 -861 15 -856 0
-860 0 -861 -20z"/>
</g>
</svg>
