<?xml version="1.0" encoding="UTF-8" standalone="no"?>
<!DOCTYPE svg PUBLIC "-//W3C//DTD SVG 1.1//EN" "http://www.w3.org/Graphics/SVG/1.1/DTD/svg11.dtd">
<svg width="100%" height="100%" viewBox="0 0 300 251" version="1.1" xmlns="http://www.w3.org/2000/svg" xmlns:xlink="http://www.w3.org/1999/xlink" xml:space="preserve" xmlns:serif="http://www.serif.com/" style="fill-rule:evenodd;clip-rule:evenodd;stroke-linejoin:round;stroke-miterlimit:2;">
    <path d="M135.629,0.25L49.375,0.25L49.375,250.75L299.875,250.75L299.875,0.25L213.621,0.25C213.764,10.413 209.957,20.622 202.202,28.377C186.972,43.608 162.278,43.608 147.048,28.377C139.293,20.622 135.486,10.413 135.629,0.25Z" style="fill:white;fill-rule:nonzero;stroke:rgb(102,79,240);stroke-width:3px;"/>
    <g>
        <text x="111.45px" y="207.75px" style="font-family:'Montserrat-Medium', 'Montserrat';font-weight:500;font-size:61px;fill:rgb(102,79,240);">w<tspan x="165.252px " y="207.75px ">a</tspan>PC</text>
        <text x="60.34px" y="235.55px" style="font-family:'Montserrat-Regular', 'Montserrat';font-size:15px;fill:rgb(102,79,240);">W<tspan x="76.18px 85.24px 95.305px " y="235.55px 235.55px 235.55px ">ebA</tspan>ssembly P<tspan x="182.32px 188.14px 197.545px 205.855px " y="235.55px 235.55px 235.55px 235.55px ">roce</tspan>dur<tspan x="241px " y="235.55px ">e</tspan> C<tspan x="264.655px " y="235.55px ">a</tspan>lls</text>
    </g>
    <g transform="matrix(1,0,0,1,0,-105.1)">
        <path d="M4.875,168.15L101.275,167.95L101.175,155.15L133.975,178.15L101.175,200.95L101.175,187.75L4.875,188.55L4.875,168.15Z" style="fill:rgb(102,79,240);fill-rule:nonzero;"/>
    </g>
    <g transform="matrix(1,0,0,-1,119,419.9)">
        <clipPath id="_clip1">
            <path d="M-214.125,469.85L114.975,469.85L114.975,224.05L-214.125,224.05L-214.125,469.85ZM-114.125,356.85L-17.725,357.05L-17.825,369.85L14.975,346.85L-17.825,324.05L-17.825,337.25L-114.125,336.45L-114.125,356.85Z"/>
        </clipPath>
        <g clip-path="url(#_clip1)">
            <path d="M-114.125,356.85L-17.725,357.05L-17.825,369.85L14.975,346.85L-17.825,324.05L-17.825,337.25L-114.125,336.45L-114.125,356.85ZM-114.125,356.85L-114.125,356.85" style="fill:white;fill-rule:nonzero;stroke:white;stroke-width:8px;stroke-linecap:round;stroke-miterlimit:10;"/>
        </g>
    </g>
    <g transform="matrix(1,0,0,1,0,18.9)">
        <path d="M133.975,106.15L37.575,105.95L37.675,93.15L4.875,116.15L37.675,138.95L37.675,125.75L133.975,126.55L133.975,106.15Z" style="fill:rgb(102,79,240);fill-rule:nonzero;"/>
    </g>
    <g transform="matrix(1,0,0,-1,119,543.9)">
        <clipPath id="_clip2">
            <path d="M-214.125,531.85L114.975,531.85L114.975,286.05L-214.125,286.05L-214.125,531.85ZM14.975,418.85L-81.425,419.05L-81.325,431.85L-114.125,408.85L-81.325,386.05L-81.325,399.25L14.975,398.45L14.975,418.85Z"/>
        </clipPath>
        <g clip-path="url(#_clip2)">
            <path d="M14.975,418.85L-81.425,419.05L-81.325,431.85L-114.125,408.85L-81.325,386.05L-81.325,399.25L14.975,398.45L14.975,418.85ZM14.975,418.85L14.975,418.85" style="fill:none;fill-rule:nonzero;stroke:white;stroke-width:8px;stroke-linecap:round;stroke-miterlimit:10;"/>
        </g>
    </g>
</svg>
