<?xml version="1.0" encoding="UTF-8" standalone="no"?>
<!DOCTYPE svg PUBLIC "-//W3C//DTD SVG 1.1//EN" "http://www.w3.org/Graphics/SVG/1.1/DTD/svg11.dtd">
<svg width="100%" height="100%" viewBox="0 0 315 315" version="1.1" xmlns="http://www.w3.org/2000/svg" xmlns:xlink="http://www.w3.org/1999/xlink" xml:space="preserve" xmlns:serif="http://www.serif.com/" style="fill-rule:evenodd;clip-rule:evenodd;stroke-linecap:round;stroke-linejoin:round;stroke-miterlimit:10;">
    <path d="M140.629,32.25L54.375,32.25L54.375,282.75L304.875,282.75L304.875,32.25L218.621,32.25C218.764,42.414 214.957,52.622 207.202,60.377C191.972,75.608 167.278,75.608 152.048,60.377C144.293,52.622 140.486,42.414 140.629,32.25Z" style="fill:rgb(102,79,240);fill-rule:nonzero;"/>
    <text x="116.45px" y="239.75px" style="font-family:'Montserrat-Medium', 'Montserrat';font-weight:500;font-size:61px;fill:white;">w<tspan x="170.252px " y="239.75px ">a</tspan>PC</text>
    <g transform="matrix(1,0,0,1,0,-105.1)">
        <path d="M9.875,200.15L106.275,199.95L106.175,187.15L138.975,210.15L106.175,232.95L106.175,219.75L9.875,220.55L9.875,200.15Z" style="fill:white;fill-rule:nonzero;"/>
    </g>
    <g transform="matrix(1,0,0,-1,124,451.9)">
        <clipPath id="_clip1">
            <path d="M-214.125,469.85L114.975,469.85L114.975,224.05L-214.125,224.05L-214.125,469.85ZM-114.125,356.85L-17.725,357.05L-17.825,369.85L14.975,346.85L-17.825,324.05L-17.825,337.25L-114.125,336.45L-114.125,356.85Z"/>
        </clipPath>
        <g clip-path="url(#_clip1)">
            <path d="M-114.125,356.85L-17.725,357.05L-17.825,369.85L14.975,346.85L-17.825,324.05L-17.825,337.25L-114.125,336.45L-114.125,356.85ZM-114.125,356.85L-114.125,356.85" style="fill:none;fill-rule:nonzero;stroke:rgb(104,78,248);stroke-width:8px;"/>
        </g>
    </g>
    <g transform="matrix(1,0,0,1,0,18.9)">
        <path d="M138.975,138.15L42.575,137.95L42.675,125.15L9.875,148.15L42.675,170.95L42.675,157.75L138.975,158.55L138.975,138.15Z" style="fill:white;fill-rule:nonzero;"/>
    </g>
    <g transform="matrix(1,0,0,-1,124,575.9)">
        <clipPath id="_clip2">
            <path d="M-214.125,531.85L114.975,531.85L114.975,286.05L-214.125,286.05L-214.125,531.85ZM14.975,418.85L-81.425,419.05L-81.325,431.85L-114.125,408.85L-81.325,386.05L-81.325,399.25L14.975,398.45L14.975,418.85Z"/>
        </clipPath>
        <g clip-path="url(#_clip2)">
            <path d="M14.975,418.85L-81.425,419.05L-81.325,431.85L-114.125,408.85L-81.325,386.05L-81.325,399.25L14.975,398.45L14.975,418.85ZM14.975,418.85L14.975,418.85" style="fill:none;fill-rule:nonzero;stroke:rgb(104,78,248);stroke-width:8px;"/>
        </g>
    </g>
</svg>